<?xml version="1.0" standalone="no"?>
<!DOCTYPE svg PUBLIC "-//W3C//DTD SVG 20010904//EN"
 "http://www.w3.org/TR/2001/REC-SVG-20010904/DTD/svg10.dtd">
<svg version="1.0" xmlns="http://www.w3.org/2000/svg"
 width="700.000000pt" height="700.000000pt" viewBox="0 0 700.000000 700.000000"
 preserveAspectRatio="xMidYMid meet">
<metadata>
Created by potrace 1.14, written by Peter Selinger 2001-2017
</metadata>
<g transform="translate(0.000000,700.000000) scale(0.100000,-0.100000)"
fill="#000000" stroke="none">
<path d="M1340 4528 l0 -2473 -90 -183 c-50 -101 -90 -186 -90 -189 0 -3 -10
-19 -22 -36 -13 -18 -22 -33 -20 -35 2 -2 -65 -140 -405 -832 -254 -517 -243
-491 -243 -547 0 -55 34 -136 71 -170 92 -84 249 -78 329 13 25 29 126 228
409 804 l56 115 5 -420 c5 -393 6 -422 24 -450 51 -78 106 -113 191 -122 43
-5 63 -1 107 19 64 30 89 54 119 117 21 45 22 56 22 411 0 312 2 360 13 335 8
-17 38 -84 68 -150 128 -285 238 -533 253 -565 44 -101 108 -153 199 -166 134
-17 256 89 257 225 1 51 -11 82 -122 331 -67 151 -134 300 -148 330 -14 30
-90 200 -169 376 -79 177 -154 346 -167 375 -14 30 -35 77 -47 104 -13 28 -48
104 -78 170 l-56 120 -1 1093 -2 1093 28 14 c15 8 542 529 1170 1157 l1143
1143 584 0 c321 0 586 -3 589 -8 3 -4 5 -455 5 -1000 0 -799 2 -997 13 -1019
13 -28 11 -38 -11 -38 -13 0 -87 -34 -144 -65 -14 -7 -46 -21 -71 -30 -48 -16
-120 -75 -223 -183 -127 -133 -238 -305 -312 -487 -20 -49 -40 -99 -45 -110
-39 -95 -103 -389 -124 -570 -3 -27 -8 -61 -10 -75 -2 -14 -7 -56 -10 -95 -4
-38 -8 -81 -10 -95 -7 -44 -19 -244 -18 -291 2 -170 216 -251 370 -140 73 53
88 104 108 371 6 84 9 113 20 219 18 168 53 337 102 484 25 76 47 136 49 134
2 -2 4 -260 4 -573 1 -437 4 -581 14 -619 9 -36 12 -117 11 -285 -3 -238 -8
-340 -31 -630 -3 -41 -7 -97 -9 -124 -5 -76 -16 -206 -20 -256 -9 -89 -19
-276 -18 -341 0 -109 55 -183 157 -210 83 -23 191 10 249 74 39 44 55 111 62
262 4 72 8 146 10 165 2 19 7 80 11 135 3 55 8 106 9 115 2 8 4 39 4 69 1 30
4 51 8 47 8 -7 10 -18 18 -96 3 -30 8 -66 10 -80 2 -14 7 -56 10 -95 3 -38 8
-90 11 -115 2 -25 7 -94 9 -153 6 -129 27 -184 88 -228 133 -96 328 -41 368
103 17 64 1 336 -36 608 -2 14 -7 52 -11 85 -3 33 -8 67 -9 75 -6 34 -15 98
-20 145 -3 28 -7 61 -10 75 -2 14 -7 52 -10 85 -4 33 -8 71 -10 85 -9 67 -18
277 -18 380 1 63 3 343 4 623 1 279 5 507 10 507 17 0 118 -271 149 -405 42
-178 48 -248 39 -520 -3 -99 8 -133 59 -180 73 -68 222 -64 314 10 77 61 96
132 96 354 0 321 -75 611 -246 961 -55 113 -166 307 -235 411 l-17 25 78 23
c91 27 159 66 225 129 204 198 213 524 21 732 -200 216 -528 230 -746 31 l-54
-49 0 821 1 822 245 2 c135 1 252 3 260 5 77 20 143 84 165 163 24 86 6 158
-60 228 -68 72 126 67 -2482 67 l-2343 0 0 -2472z m2134 2002 c5 -6 -1654
-1670 -1665 -1670 -5 0 -5 1656 -1 1670 3 7 1659 7 1666 0z"/>
</g>
</svg>
