<?xml version="1.0" encoding="utf-8"?>
<svg viewBox="0 0 90.521 90.521" width="90.521" height="90.521" style="enable-background:new 0 0 90.521 90.521;" xmlns="http://www.w3.org/2000/svg">
  <g transform="matrix(-1, 0, 0, 1, 90.521049, 0)">
    <path d="M 82.779 90.21 C 82.353 90.42 81.902 90.52 81.457 90.52 C 80.351 90.52 79.286 89.905 78.765 88.844 L 73.205 77.547 L 73.205 87.52 C 73.205 89.176 71.862 90.52 70.205 90.52 C 68.548 90.52 67.205 89.176 67.205 87.52 L 67.205 78.682 L 62.693 88.748 C 62.194 89.861 61.1 90.521 59.954 90.521 C 59.542 90.521 59.125 90.435 58.728 90.256 C 57.216 89.578 56.539 87.804 57.218 86.291 L 67.204 64.017 L 67.204 35.906 C 66.818 35.76 66.454 35.537 66.142 35.226 L 37.32 6.405 C 37.194 6.279 37.089 6.141 36.989 6 L 21.705 6 L 23.686 28.112 L 18.704 6 L 12.87 6 C 11.213 6 9.87 4.657 9.87 3 C 9.87 1.343 11.213 0 12.87 0 L 73.203 0 L 73.203 63.96 L 84.145 86.195 C 84.876 87.682 84.266 89.479 82.779 90.21 Z M 24.06 39.924 C 24.688 40.328 24.444 40.199 25.004 40.626 C 32.706 46.488 33.21 55.365 33.883 64.414 C 34.17 68.276 28.168 68.248 27.883 64.414 C 27.52 59.52 27.238 54.9 25.383 50.853 L 25.383 65.248 C 25.383 65.852 25.281 66.432 25.101 66.977 C 24.836 73.836 25.903 80.649 26.133 87.498 C 26.266 91.455 20.092 91.788 20.133 87.498 C 20.162 84.496 19.729 81.51 19.493 78.519 C 19.127 81.25 18.833 83.986 18.726 86.748 C 18.549 91.328 12.45 92.129 12.726 86.748 C 13.078 79.876 14.742 73.148 14.478 66.254 C 14.418 65.927 14.382 65.592 14.382 65.248 L 14.382 51.293 C 12.5 55.117 11.386 60.754 11.882 65.248 C 12.307 69.09 6.302 69.049 5.882 65.248 C 5.045 57.673 8.469 46.851 12.707 40.793 C 13.843 39.169 13.414 39.461 13.225 39.047 C 12.773 38.63 12.353 38.157 12.056 37.732 C 11.758 37.307 11.571 36.929 11.387 36.484 C 11.197 36.024 11.037 35.482 10.941 35.012 C 10.852 34.579 10.812 34.216 10.807 33.764 C 10.802 33.259 10.856 32.599 10.941 32.114 C 11.015 31.693 11.057 31.448 11.253 30.999 C 11.53 30.366 12.131 29.264 12.635 28.636 C 13.071 28.094 13.557 27.71 14.04 27.365 C 14.488 27.044 14.944 26.808 15.422 26.607 C 15.896 26.408 16.378 26.258 16.894 26.161 C 17.431 26.06 18.074 26.022 18.588 26.027 C 19.044 26.032 19.403 26.072 19.837 26.161 C 20.307 26.258 20.784 26.366 21.308 26.607 C 21.93 26.893 22.743 27.374 23.315 27.855 C 23.446 27.965 23.573 28.083 23.695 28.206 L 23.686 28.112 L 23.711 28.223 C 24.086 28.602 24.414 29.023 24.675 29.394 C 24.975 29.822 25.16 30.197 25.344 30.642 C 25.534 31.102 25.693 31.644 25.79 32.114 C 25.878 32.547 25.919 32.91 25.923 33.362 C 25.928 33.867 25.875 34.527 25.79 35.012 C 25.716 35.433 25.674 35.678 25.477 36.127 C 25.2 36.761 24.6 37.862 24.095 38.49 C 23.953 38.667 23.805 38.828 23.654 38.975 C 23.654 39.331 23.719 39.705 24.06 39.924 Z M 67.203 27.803 L 67.203 6 L 45.399 6 L 67.203 27.803 Z" style="fill: rgb(54, 37, 105); paint-order: fill;"/>
    <rect x="-24.954" y="6.499" width="14.021" height="18.888" style="stroke: rgb(255, 255, 255); fill: rgb(255, 255, 255);" transform="matrix(-1, 0, 0, 1, 0, 0)"/>
  </g>
  <g/>
  <g/>
  <g/>
  <g/>
  <g/>
  <g/>
  <g/>
  <g/>
  <g/>
  <g/>
  <g/>
  <g/>
  <g/>
  <g/>
  <g/>
  <ellipse style="fill: rgb(255, 255, 255); stroke: rgb(255, 255, 255);" cx="66.49" cy="26.664" rx="0.48" ry="1.066"/>
  <path stroke-width="0" d="M 68.81 28.174 C 68.992 28.15 69.195 28.154 69.366 28.174 C 69.523 28.192 69.655 28.224 69.799 28.277 C 69.95 28.332 70.107 28.401 70.252 28.503 C 70.407 28.613 70.566 28.753 70.694 28.925 C 70.834 29.114 70.975 29.353 71.044 29.605 C 71.118 29.872 71.141 30.215 71.106 30.49 C 71.073 30.748 70.989 30.987 70.859 31.211 C 70.723 31.445 70.507 31.691 70.293 31.859 C 70.089 32.02 69.863 32.14 69.613 32.209 C 69.351 32.282 69.023 32.308 68.749 32.271 C 68.482 32.236 68.208 32.133 67.987 32.004 C 67.775 31.879 67.59 31.711 67.441 31.52 C 67.29 31.325 67.16 31.088 67.091 30.84 C 67.019 30.582 67.006 30.248 67.029 29.996 C 67.05 29.774 67.1 29.598 67.194 29.399 C 67.299 29.176 67.398 29.019 67.582 28.837 C 67.76 28.661 68.072 28.411 68.275 28.318 C 68.456 28.235 68.629 28.198 68.81 28.174 Z M 74.987 28.75 C 75.16 28.727 75.33 28.727 75.502 28.75 C 75.68 28.774 75.883 28.834 76.038 28.894 C 76.173 28.947 76.268 28.992 76.388 29.08 C 76.53 29.184 76.702 29.329 76.83 29.502 C 76.97 29.69 77.111 29.933 77.18 30.181 C 77.252 30.439 77.276 30.76 77.242 31.025 C 77.21 31.28 77.12 31.529 76.995 31.746 C 76.87 31.965 76.689 32.177 76.491 32.333 C 76.294 32.489 76.059 32.614 75.811 32.683 C 75.553 32.755 75.237 32.78 74.967 32.745 C 74.702 32.71 74.426 32.607 74.205 32.477 C 73.993 32.353 73.808 32.185 73.659 31.993 C 73.508 31.798 73.379 31.562 73.309 31.314 C 73.237 31.056 73.214 30.735 73.248 30.47 C 73.28 30.215 73.37 29.966 73.495 29.749 C 73.62 29.53 73.827 29.308 73.999 29.162 C 74.147 29.037 74.289 28.963 74.452 28.894 C 74.618 28.825 74.81 28.774 74.987 28.75 Z" style="stroke-width: 2px; stroke: rgb(54, 37, 105);"/>
  <path style="stroke: rgb(0, 0, 0); fill: rgb(54, 37, 105);" d="M 68.38 35.796 C 68.516 36.001 68.854 36.128 69.076 36.183 C 69.265 36.23 69.336 36.39 69.539 36.492 C 69.664 36.555 69.853 36.581 69.984 36.647 C 70.556 36.933 70.629 37.011 71.258 37.171 C 71.445 37.219 71.497 37.246 72.267 37.345 C 72.298 37.349 72.614 37.369 72.633 37.351 C 72.976 37.257 73.293 37.32 73.162 37.241 C 72.985 37.134 74.122 37.061 73.422 37.116 C 73.399 37.118 73.583 37.039 73.599 37.022 C 73.747 36.875 73.913 37.011 74.122 36.871 C 74.305 36.749 74.647 36.634 74.814 36.551 C 74.94 36.488 75.257 36.271 75.339 36.148 C 75.425 36.019 75.772 35.799 75.878 35.701"/>
</svg>